<script>
  export let state = "off";
</script>

<svg
  viewBox="0 0 300 300"
  version="1.1"
  xmlns="http://www.w3.org/2000/svg"
  xmlns:xlink="http://www.w3.org/1999/xlink">
  <title>bulb</title>
  <g class="fill">
    <g
      class="bulb"
      stroke="none"
      stroke-width="1"
      fill="none"
      fill-rule="evenodd">
      <path
        d="M151,82 C186.346224,82 215,110.705943 215,146.116518 C215,163.591966 208.021333,179.43449 196.703637,190.999648 L105.296363,190.999648 C93.9786673,179.43449 87,163.591966 87,146.116518 C87,110.705943 115.653776,82 151,82 Z M161.657434,98.1074645 C158.001328,102.959281 162.546255,112.550732 171.808814,119.530571 C181.071372,126.510409 191.544019,128.235512 195.200125,123.383696 C198.856231,118.531879 194.311303,108.940428 185.048744,101.960589 C175.786186,94.980751 165.313539,93.2556482 161.657434,98.1074645 Z" />
      <g class="threads" transform="translate(105.000000, 92.270257)">
        <path
          d="M5.5877193,117.729743 L5.58693212,117.71657 C2.46694954,117.510349 0,114.908773 0,111.729743 C0,108.550714 2.46694954,105.949137 5.58693212,105.742917 L5.5877193,105.729743 L85.4122807,105.729743 L85.4130679,105.742917 C88.5330505,105.949137 91,108.550714 91,111.729743 C91,114.908773 88.5330505,117.510349 85.4130679,117.71657 L85.4122807,117.729743 L5.5877193,117.729743 Z"
          class="thread" />
        <path
          d="M11.6,135.729743 L11.5999967,135.716621 C8.47278551,135.510785 6,132.909039 6,129.729743 C6,126.550447 8.47278551,123.948701 11.5999967,123.742865 L11.6,123.729743 L79.6,123.729743 L79.5999967,123.742865 C79.7322072,123.734163 79.8655874,123.729743 80,123.729743 C83.3137085,123.729743 86,126.416035 86,129.729743 C86,133.043452 83.3137085,135.729743 80,135.729743 C79.8655874,135.729743 79.7322072,135.725324 79.5999967,135.716621 L79.6,135.729743 L11.6,135.729743 Z"
          class="thread" />
      </g>
      <path
        d="M182.999916,235.000668 C181.015485,250.785659 167.445231,263 151,263 C134.554769,263 120.984515,250.785659 119.000084,235.000668 Z"
        class="base" />
      {#if state !== 'off'}
        <g class="light" transform="translate(43.000000, 38.000000)">
          <rect class="beam" x="103" y="0" width="10" height="34" rx="5" />
          <rect
            class="beam"
            transform="translate(17.000000, 105.000000) rotate(-90.000000) translate(-17.000000, -105.000000) "
            x="12"
            y="88"
            width="10"
            height="34"
            rx="5" />
          <rect
            class="beam"
            transform="translate(34.556349, 46.556349) rotate(-45.000000) translate(-34.556349, -46.556349) "
            x="29.5563492"
            y="29.5563492"
            width="10"
            height="34"
            rx="5" />
          <rect
            class="beam"
            transform="translate(181.556349, 46.556349) scale(1, -1) rotate(-45.000000) translate(-181.556349, -46.556349) "
            x="176.556349"
            y="29.5563492"
            width="10"
            height="34"
            rx="5" />
          <rect
            class="beam"
            transform="translate(198.000000, 105.000000) rotate(-90.000000) translate(-198.000000, -105.000000) "
            x="193"
            y="88"
            width="10"
            height="34"
            rx="5" />
        </g>
      {/if}
    </g>
  </g>
</svg>
