<script>
  export let on = false;
</script>

<svg viewBox="0 0 300 300" version="1.1" xmlns="http://www.w3.org/2000/svg" xmlns:xlink="http://www.w3.org/1999/xlink">
  {#if !on}
    <g class="ethernet stroke">
      <polygon opacity="0.3" fill="none" stroke-width="12" stroke-linejoin="round" points="54 69 54 184 82 184 82 207 110 207 110 230 189 230 189 207 217 207 217 184 246 184 246 69"></polygon>
    </g>
    <g class="off" transform="translate(250.000000, 233.000000)" stroke-linecap="round" stroke-linejoin="round" stroke="var(--color-24)" stroke-width="12">
      <line x1="-1.13686838e-13" y1="0" x2="24" y2="24"></line>
      <line x1="24" y1="0" x2="-1.13686838e-13" y2="24"></line>
    </g>
  {:else}
    <g class="ethernet" stroke="none" stroke-width="1" fill="none" fill-rule="evenodd">
      <g class="fill wires" transform="translate(67.000000, 83.000000)">
        <rect x="0" y="0" width="16" height="49" rx="5"></rect>
        <rect x="25" y="0" width="16" height="49" rx="5"></rect>
        <rect x="50" y="0" width="16" height="49" rx="5"></rect>
        <rect x="75" y="0" width="16" height="49" rx="5"></rect>
        <rect x="100" y="0" width="16" height="49" rx="5"></rect>
        <rect x="125" y="0" width="16" height="49" rx="5"></rect>
        <rect x="150" y="0" width="16" height="49" rx="5"></rect>
      </g>
      <g class="stroke">
        <polygon stroke-width="12" stroke-linejoin="round" points="54 69 54 184 82 184 82 207 110 207 110 230 189 230 189 207 217 207 217 184 246 184 246 69"></polygon>
      </g>
    </g>
  {/if}
</svg>