<svg viewBox="0 0 300 300" version="1.1" xmlns="http://www.w3.org/2000/svg" xmlns:xlink="http://www.w3.org/1999/xlink">
  <g class="settings stroke" stroke="none" stroke-width="1" fill="none" fill-rule="evenodd" stroke-linejoin="round">
    <path d="M161.5,58 L161.92504,60.4162914 L162.5465,63.9966245 L163.14864,67.5240328 L163.539333,69.8462358 L163.92144,72.1449167 L164.4785,75.5488341 L164.987232,78.7102663 C173.981621,80.591617 182.366386,84.1322019 189.806729,88.997225 L192.407079,87.1172302 L195.207913,85.104198 L197.103516,83.7489754 L199.989491,81.6963397 L201.941855,80.3147147 L204.912971,78.2224755 L206.922096,76.8144481 L223.185552,93.0779041 L221.777525,95.0870288 L219.685285,98.0581452 L217.616808,100.978177 L216.251025,102.896484 L214.895802,104.792087 L212.88277,107.592921 L211.002775,110.193271 C215.867798,117.633614 219.408383,126.018379 221.289734,135.012768 L224.451166,135.5215 L227.855083,136.07856 L230.153764,136.460667 L233.645889,137.049927 L236.003376,137.4535 L239.583709,138.07496 L242,138.5 L242,161.5 L239.583709,161.92504 L237.190939,162.341493 L233.645889,162.950073 L231.311925,163.34506 L227.855083,163.92144 L225.579925,164.29496 L222.21129,164.83914 L221.289894,164.986467 C219.408584,173.981145 215.867936,182.366174 211.002775,189.806729 L212.88277,192.407079 L214.895802,195.207913 L216.251025,197.103516 L218.30366,199.989491 L219.685285,201.941855 L221.777525,204.912971 L223.185552,206.922096 L206.922096,223.185552 L204.912971,221.777525 L202.926551,220.380058 L199.989491,218.30366 L198.059831,216.932596 L195.207913,214.895802 L193.335014,213.55114 L189.807496,211.002274 C182.366962,215.867555 173.98193,219.408318 164.987232,221.289734 L164.4785,224.451166 L163.92144,227.855083 L163.539333,230.153764 L162.950073,233.645889 L162.5465,236.003376 L161.92504,239.583709 L161.5,242 L138.5,242 L138.07496,239.583709 L137.658507,237.190939 L137.049927,233.645889 L136.65494,231.311925 L136.07856,227.855083 L135.70504,225.579925 L135.16086,222.21129 L135.013533,221.289894 C126.018855,219.408584 117.633826,215.867936 110.193271,211.002775 L107.592921,212.88277 L104.792087,214.895802 L102.896484,216.251025 L100.010509,218.30366 L98.0581452,219.685285 L95.0870288,221.777525 L93.0779041,223.185552 L76.8144481,206.922096 L78.2224755,204.912971 L79.6199419,202.926551 L81.6963397,199.989491 L83.0674037,198.059831 L85.104198,195.207913 L86.4488597,193.335014 L88.9977263,189.807496 C84.1324451,182.366962 80.5916816,173.98193 78.7102663,164.987232 L75.5488341,164.4785 L72.1449167,163.92144 L69.8462358,163.539333 L66.3541106,162.950073 L63.9966245,162.5465 L60.4162914,161.92504 L58,161.5 L58,138.5 L60.4162914,138.07496 L63.9966245,137.4535 L67.5240328,136.85136 L69.8462358,136.460667 L72.1449167,136.07856 L75.5488341,135.5215 L78.7102663,135.012768 C80.591617,126.018379 84.1322019,117.633614 88.997225,110.193271 L87.1172302,107.592921 L85.104198,104.792087 L83.7489754,102.896484 L81.6963397,100.010509 L80.3147147,98.0581452 L78.2224755,95.0870288 L76.8144481,93.0779041 L93.0779041,76.8144481 L95.0870288,78.2224755 L98.0581452,80.3147147 L100.978177,82.3831918 L102.896484,83.7489754 L104.792087,85.104198 L107.592921,87.1172302 L110.193271,88.997225 C117.633614,84.1322019 126.018379,80.591617 135.012768,78.7102663 L135.5215,75.5488341 L136.07856,72.1449167 L136.460667,69.8462358 L137.049927,66.3541106 L137.4535,63.9966245 L138.07496,60.4162914 L138.5,58 L161.5,58 Z M150,103 C124.042617,103 103,124.042617 103,150 C103,175.957383 124.042617,197 150,197 C175.957383,197 197,175.957383 197,150 C197,124.042617 175.957383,103 150,103 Z" stroke-width="12"></path>
  </g>
</svg>