<script>
  export let on = false;
</script>

<svg viewBox="0 0 300 300" version="1.1" xmlns="http://www.w3.org/2000/svg" xmlns:xlink="http://www.w3.org/1999/xlink">
  <g class="wifi" stroke="none" stroke-width="1" fill="none" fill-rule="evenodd">
    {#if on}
      <g class="fill"><circle cx="150" cy="214" r="10"></circle></g>
      <g class="stroke" transform="translate(54.187323, 81.000000)" stroke-linecap="round" stroke-linejoin="round" stroke-width="12">
        <path d="M191.666783,58.1923678 C173.662081,23.6132092 137.49496,1.42108547e-14 95.8126771,1.42108547e-14 C54.1623404,1.42108547e-14 18.0187137,23.5770281 0,58.1128815" class="signal"></path>
        <path d="M165.833392,74.3490357 C152.682139,49.0912309 126.264431,31.8433321 95.818261,31.8433321 C65.3954249,31.8433321 38.9948789,49.064803 25.8333916,74.2909762" class="signal"></path>
        <path d="M143.833392,92.669568 C134.81539,75.3499304 116.70039,63.5227998 95.8230163,63.5227998 C74.961643,63.5227998 56.8584114,75.3318084 47.8333916,92.6297558" class="signal"></path>
        <path d="M119.833392,110.382876 C115.324391,101.723057 106.266891,95.8094918 95.828204,95.8094918 C85.3975173,95.8094918 76.3459015,101.713996 71.8333916,110.36297" class="signal"></path>
      </g>
    {:else}
      <g class="stroke" opacity="0.3" transform="translate(54.187323, 81.000000)" stroke-linecap="round" stroke-linejoin="round" stroke-width="12">
        <path d="M191.666783,58.1923678 C168.87713,19.3974559 136.925762,-1.42108547e-14 95.8126771,-1.42108547e-14 C54.6995925,-1.42108547e-14 22.7620335,19.3709605 0,58.1128815 L95.8126771,138.558421 L191.666783,58.1923678 Z" id="signal"></path>
      </g>
    {/if}
  </g>
  {#if !on}
    <g class="off" transform="translate(224.000000, 233.000000)" stroke-linecap="round" stroke-linejoin="round" stroke="var(--color-24)" stroke-width="12">
      <line x1="-1.13686838e-13" y1="0" x2="24" y2="24"></line>
      <line x1="24" y1="0" x2="-1.13686838e-13" y2="24"></line>
    </g>
  {/if}
</svg>